<svg width="67" height="37" viewBox="0 0 67 37" fill="none" xmlns="http://www.w3.org/2000/svg">
<path d="M13.4224 30.1716H8.52625C6.4359 30.1716 5.65552 28.3193 5.65552 25.7658L5.65202 12.4473H0V25.7658C0 31.4884 3.98429 35.8017 9.26804 35.8017H19.0832V12.4473H13.4224V30.1716Z" fill="white"/>
<path d="M28.8056 18.0775H33.7018C35.7922 18.0775 36.5725 19.9298 36.5725 22.4833L36.5743 35.8017H42.2263V22.4833C42.2263 16.7607 38.242 12.4473 32.9583 12.4473H23.1431V35.8017H28.8039V18.0775H28.8056Z" fill="white"/>
<path d="M46.291 35.8032H52.0412V10.5703L46.291 12.9528V35.8032Z" fill="white"/>
<path d="M66.6984 30.9973L66.658 30.999C66.2319 31.0548 65.7707 31.081 65.2902 31.081C64.0363 31.081 63.1455 30.7374 62.6404 30.0607C62.1161 29.356 61.8495 28.1351 61.8495 26.431V17.091H66.9983V12.2178H61.8495V6.27539L56.1011 8.65793V26.4746C56.1011 27.9572 56.2326 29.295 56.4921 30.4531C56.7552 31.6339 57.2182 32.656 57.867 33.4897C58.5194 34.3321 59.4137 34.9844 60.5238 35.4257C61.6181 35.8618 62.9947 36.0815 64.6115 36.0815C65.3621 36.0815 66.0776 36.0344 66.7405 35.9437L67 35.9071V30.9973H66.6984Z" fill="white"/>
<path d="M46.291 0.5V8.52841L52.0412 6.14587V0.5H46.291Z" fill="white"/>
</svg>
