<svg width="13" height="18" viewBox="0 0 13 18" fill="none" xmlns="http://www.w3.org/2000/svg">
<path fill-rule="evenodd" clip-rule="evenodd" d="M1.91392 18C0.605425 18 0 17.3585 0 16.0173V8.94168C0 7.77538 0.449186 7.15335 1.42568 6.99784V4.8013C1.42568 2.06048 3.39819 0 6.1519 0C8.90561 0 10.8781 2.06048 10.8781 4.8013V6.99784C11.8546 7.15335 12.3038 7.77538 12.3038 8.94168V16.0173C12.3038 17.3585 11.6984 18 10.4289 18H1.91392ZM3.30054 4.89849V6.9784H9.02279V4.89849C9.02279 3.16847 7.83147 1.80778 6.1519 1.80778C4.49186 1.80778 3.30054 3.16847 3.30054 4.89849ZM6.1519 14.1266C7.1586 14.1266 7.97468 13.3105 7.97468 12.3038C7.97468 11.2971 7.1586 10.481 6.1519 10.481C5.1452 10.481 4.32911 11.2971 4.32911 12.3038C4.32911 13.3105 5.1452 14.1266 6.1519 14.1266Z" fill="#2AE56F"/>
</svg>
