<svg width="39" height="37" viewBox="0 0 39 37" fill="none" xmlns="http://www.w3.org/2000/svg">
<path d="M38.458 15.8464L27.058 4.44639C26.9167 4.26474 26.7207 4.1334 26.4989 4.0718C26.2772 4.01021 26.0415 4.02164 25.8268 4.10439C25.6036 4.19531 25.415 4.35462 25.288 4.55944C25.161 4.76426 25.1022 5.00406 25.12 5.24439V10.9444H17.14C16.8377 10.9444 16.5477 11.0645 16.3339 11.2783C16.1201 11.4921 16 11.782 16 12.0844V21.2044C16 21.5067 16.1201 21.7967 16.3339 22.0105C16.5477 22.2243 16.8377 22.3444 17.14 22.3444H25.12V28.0444C25.1211 28.2695 25.1888 28.4892 25.3146 28.6758C25.4404 28.8624 25.6186 29.0077 25.8268 29.0932C25.9694 29.1255 26.1174 29.1255 26.26 29.0932C26.4095 29.095 26.5578 29.0655 26.6952 29.0066C26.8326 28.9477 26.9562 28.8607 27.058 28.7512L38.458 17.3512C38.6504 17.1479 38.7577 16.8787 38.7577 16.5988C38.7577 16.3189 38.6504 16.0496 38.458 15.8464Z" fill="#FBFBFB"/>
<rect width="8" height="37" fill="#FBFBFB"/>
</svg>
